<?xml version="1.0" standalone="no"?>
<!DOCTYPE svg PUBLIC "-//W3C//DTD SVG 20010904//EN"
 "http://www.w3.org/TR/2001/REC-SVG-20010904/DTD/svg10.dtd">
<svg version="1.0" xmlns="http://www.w3.org/2000/svg"
 width="418.000000pt" height="128.000000pt" viewBox="0 0 418.000000 128.000000"
 preserveAspectRatio="xMidYMid meet">

<g transform="translate(0.000000,128.000000) scale(0.100000,-0.100000)"
fill="#000000" stroke="none">
<path d="M4100 834 l0 -156 -39 35 c-76 69 -205 57 -276 -25 -89 -105 -87
-308 4 -391 83 -75 197 -74 273 3 l38 38 0 -44 0 -44 40 0 40 0 0 370 0 370
-40 0 -40 0 0 -156z m-54 -175 c39 -35 54 -80 54 -157 0 -119 -59 -192 -155
-192 -86 0 -144 72 -145 180 0 73 14 117 47 153 38 40 59 47 121 44 38 -3 59
-10 78 -28z"/>
<path d="M36 853 c19 -54 76 -212 127 -351 l92 -253 44 3 44 3 128 345 c71
190 129 346 129 348 0 1 -19 2 -42 2 l-43 0 -103 -293 c-57 -160 -106 -299
-109 -307 -4 -10 -8 -5 -13 15 -6 24 -100 296 -190 553 -11 29 -15 32 -56 32
l-44 0 36 -97z"/>
<path d="M770 751 c-119 -36 -178 -136 -168 -284 11 -166 115 -247 283 -219
86 14 115 33 115 73 0 26 -3 30 -17 24 -95 -40 -168 -46 -223 -17 -37 20 -80
89 -80 129 l0 23 176 0 177 0 -5 68 c-5 70 -30 133 -66 165 -43 39 -131 56
-192 38z m121 -77 c31 -15 59 -66 59 -104 0 -19 -6 -20 -135 -20 -87 0 -135 4
-135 10 0 26 44 93 73 110 39 24 97 26 138 4z"/>
<path d="M1285 751 c-102 -25 -165 -126 -165 -266 0 -84 23 -147 70 -189 83
-75 196 -73 274 5 l39 39 -5 -69 c-6 -87 -32 -139 -84 -168 -55 -32 -141 -31
-211 2 l-53 24 0 -40 c0 -37 3 -41 38 -56 25 -11 67 -17 128 -17 114 -1 174
25 217 95 39 64 47 131 47 402 l0 237 -40 0 c-39 0 -40 -1 -40 -37 l0 -37 -33
32 c-48 47 -107 61 -182 43z m146 -84 c50 -33 69 -79 69 -163 0 -54 -5 -81
-23 -114 -57 -108 -208 -107 -257 3 -21 46 -26 131 -10 186 10 37 53 88 85
101 39 17 101 11 136 -13z"/>
<path d="M1847 750 c-73 -19 -97 -37 -97 -75 0 -19 2 -35 5 -35 2 0 23 10 47
22 23 12 67 24 97 26 69 5 107 -19 117 -75 8 -44 1 -49 -84 -58 -102 -11 -156
-31 -191 -70 -27 -31 -31 -43 -31 -91 0 -93 36 -135 129 -150 54 -9 123 17
156 59 l25 32 0 -42 0 -43 40 0 40 0 0 173 c-1 228 -15 281 -84 315 -36 18
-121 24 -169 12z m173 -280 c0 -89 -59 -160 -134 -160 -71 0 -112 46 -99 111
8 40 42 61 122 75 111 20 111 20 111 -26z"/>
<path d="M2337 748 c-89 -24 -137 -111 -101 -185 16 -32 33 -45 110 -83 51
-25 99 -51 108 -59 17 -14 21 -58 8 -77 -27 -40 -125 -46 -195 -10 l-47 23 0
-42 c0 -35 4 -44 25 -53 48 -22 128 -25 187 -8 77 22 118 69 118 133 0 41 -5
50 -39 82 -21 20 -70 49 -110 64 -83 33 -110 63 -95 105 5 15 21 32 34 39 37
19 110 16 153 -6 l37 -19 0 43 c0 42 -1 43 -44 54 -53 13 -97 13 -149 -1z"/>
<path d="M3054 741 c-22 -10 -50 -31 -62 -47 l-21 -29 -1 43 0 42 -40 0 -40 0
0 -250 0 -250 40 0 40 0 0 154 c0 186 4 208 45 252 28 29 39 34 79 34 56 0 89
-27 105 -86 6 -22 11 -110 11 -196 l0 -158 34 0 34 0 4 168 c4 181 11 209 64
251 52 41 142 18 163 -40 6 -19 11 -104 11 -205 l0 -174 40 0 40 0 0 178 c0
97 -5 195 -11 217 -34 122 -194 153 -283 55 -39 -43 -46 -47 -46 -27 0 18 -49
64 -83 76 -41 16 -76 13 -123 -8z"/>
<path d="M2665 334 c-26 -26 -16 -77 17 -88 53 -18 91 50 50 87 -23 21 -46 21
-67 1z"/>
</g>
</svg>
